# xmcd
#
# Track frame offsets:
#	150
#	17089
#	38779
#	59928
#	73899
#	95057
#	108675
#	125426
#	135998
#	149459
#	161024
#	180332
#	193889
#	221262
#	242026
#
# Disc length: 3397 seconds
#
# Revision: 0
# Processed by: cddbd v1.5.1PL2 Copyright (c) Steve Scherf et al.
# Submitted via: EasyCDDAExtractor 9.0.0.1
#
DISCID=e60d430f
DTITLE=Smythe and Taylor - Maybe It's Because I'm Missing You
DYEAR=2005
DGENRE=Country
TTITLE0=I Feel The Rain
TTITLE1=Hit The Road Again (D-18)
TTITLE2=Maybe It's Because I'm Missing You
TTITLE3=My Real Hometown
TTITLE4=I'm Takin' With Me
TTITLE5=Three Quarter Time
TTITLE6=Time Is Never Wasted
TTITLE7=In Each Other's Arms
TTITLE8=Great Dane
TTITLE9=Done Getting Down
TTITLE10=Only Lonely One
TTITLE11=My SUV
TTITLE12=Sothbound Train
TTITLE13=It's A Sin To Tell A Lie
TTITLE14=How Could You Believe Me
EXTD=
EXTT0=
EXTT1=
EXTT2=
EXTT3=
EXTT4=
EXTT5=
EXTT6=
EXTT7=
EXTT8=
EXTT9=
EXTT10=
EXTT11=
EXTT12=
EXTT13=
EXTT14=
PLAYORDER=
